<?xml version="1.0" encoding="utf-8"?>
<svg id="master-artboard" viewBox="0 0 1920 1080" version="1.1" xmlns="http://www.w3.org/2000/svg" x="0px" y="0px" style="enable-background:new 0 0 1400 980;" width="1920px" height="1080px"><rect id="ee-background" x="0" y="0" width="1920" height="1080" style="fill: rgb(255, 0, 16); fill-opacity: 0.05; pointer-events: none;"/><g transform="matrix(10.019439697265623, 0, 0, 10.019439697265625, -6371.151616795505, -113.99449338747492)"><g id="Layer_2" transform="matrix(1, 0, 0, 1, 0, 0)">
	<g id="Layer_1-2">
		<path class="st0" d="M652,46c27.6,0,50,22.4,50,50s-22.4,50-50,50s-50-22.4-50-50S624.4,46,652,46z" style="fill: rgb(255, 0, 16); fill-opacity: 0.14;"/>
	</g>
</g></g><g transform="matrix(10.019439697265623, 0, 0, 10.019439697265625, -6251.34089796228, 41.832152334916316)"><g id="g-1" transform="matrix(1, 0, 0, 1, 0, 0)">
	<g id="g-2">
		<path class="st0" d="M652,46c27.6,0,50,22.4,50,50s-22.4,50-50,50s-50-22.4-50-50S624.4,46,652,46z" style="fill: rgb(255, 0, 16); fill-opacity: 0.21;"/>
	</g>
</g></g><g transform="matrix(7.118292808532715, 0, 0, 7.118292808532714, -3948.243680490404, 308.5352989316239)"><g id="g-3" transform="matrix(1, 0, 0, 1, 0, 0)">
	<g id="g-4">
		<path class="st0" d="M652,46c27.6,0,50,22.4,50,50s-22.4,50-50,50s-50-22.4-50-50S624.4,46,652,46z" style="fill: rgb(255, 0, 16); fill-opacity: 0.4;"/>
	</g>
</g></g><g transform="matrix(10.019439697265623, 0, 0, 10.019439697265625, -5164.296516477082, -835.5832448164285)"><g id="g-5" transform="matrix(1, 0, 0, 1, 0, 0)">
	<g id="g-6">
		<path class="st0" d="M652,46c27.6,0,50,22.4,50,50s-22.4,50-50,50s-50-22.4-50-50S624.4,46,652,46z" style="fill: rgb(255, 0, 16); fill-opacity: 0.14;"/>
	</g>
</g></g><g transform="matrix(10.019439697265623, 0, 0, 10.019439697265625, -5044.485481320833, -679.7565846601785)"><g id="g-7" transform="matrix(1, 0, 0, 1, 0, 0)">
	<g id="g-8">
		<path class="st0" d="M652,46c27.6,0,50,22.4,50,50s-22.4,50-50,50s-50-22.4-50-50S624.4,46,652,46z" style="fill: rgb(255, 0, 16); fill-opacity: 0.21;"/>
	</g>
</g></g><g transform="matrix(7.118292808532715, 0, 0, 7.118292808532714, -2741.388557492708, -413.0534291426005)"><g id="g-9" transform="matrix(1, 0, 0, 1, 0, 0)">
	<g id="g-10">
		<path class="st0" d="M652,46c27.6,0,50,22.4,50,50s-22.4,50-50,50s-50-22.4-50-50S624.4,46,652,46z" style="fill: rgb(255, 0, 16); fill-opacity: 0.4;"/>
	</g>
</g></g></svg>